<?xml version="1.0" standalone="no"?>
<!DOCTYPE svg PUBLIC "-//W3C//DTD SVG 20010904//EN"
 "http://www.w3.org/TR/2001/REC-SVG-20010904/DTD/svg10.dtd">
<svg version="1.0" xmlns="http://www.w3.org/2000/svg"
 width="512.000000pt" height="512.000000pt" viewBox="0 0 512.000000 512.000000"
 preserveAspectRatio="xMidYMid meet">
<metadata>
Created by potrace 1.14, written by Peter Selinger 2001-2017
</metadata>
<g transform="translate(0.000000,512.000000) scale(0.100000,-0.100000)"
fill="#000000" stroke="none">
<path d="M2379 5116 c-2 -2 -40 -6 -83 -10 -44 -4 -82 -8 -85 -10 -3 -2 -31
-7 -61 -11 -30 -3 -86 -13 -124 -22 -37 -8 -73 -16 -80 -17 -62 -13 -288 -85
-300 -97 -6 -5 -16 -9 -23 -9 -32 0 -283 -125 -414 -206 -538 -333 -936 -862
-1113 -1479 -69 -240 -91 -411 -90 -705 0 -205 3 -255 28 -410 40 -254 128
-516 254 -760 48 -94 198 -330 242 -384 244 -293 423 -453 694 -621 285 -176
666 -315 961 -350 28 -4 61 -9 75 -12 45 -9 494 -12 565 -3 141 17 170 21 187
26 10 3 30 7 45 10 16 3 37 6 48 8 114 20 386 112 530 179 176 82 408 226 532
330 316 266 515 513 688 857 113 222 215 548 240 765 3 28 10 77 15 110 9 63
7 522 -3 565 -3 14 -8 46 -11 71 -35 255 -133 558 -256 794 -91 174 -140 253
-232 373 -139 183 -259 304 -484 492 -25 20 -177 124 -244 165 -120 75 -337
175 -505 233 -70 25 -284 81 -335 88 -19 3 -46 7 -60 9 -14 3 -41 7 -60 10
-19 3 -53 7 -75 11 -44 6 -460 15 -466 10z"/>
</g>
</svg>
